<svg id="visual" viewBox="0 0 900 600" width="900" height="600" xmlns="http://www.w3.org/2000/svg" xmlns:xlink="http://www.w3.org/1999/xlink" version="1.1"><g transform="translate(456.0091623876744 257.34844252048356)"><path d="M109.7 -109.6C155.2 -92.6 214 -70.4 234.4 -30.1C254.9 10.1 237 68.3 203.5 109.2C170 150.1 120.9 173.7 68.7 195.9C16.4 218 -39 238.7 -85.5 225.7C-131.9 212.7 -169.5 166.1 -203 114.2C-236.5 62.3 -266 5.1 -251.2 -38.3C-236.4 -81.7 -177.3 -111.3 -128.1 -127.7C-78.8 -144 -39.4 -147 -3.6 -142.6C32.1 -138.3 64.3 -126.6 109.7 -109.6" fill="#151319"></path></g></svg>