<svg xmlns="http://www.w3.org/2000/svg" version="1.1" xmlns:xlink="http://www.w3.org/1999/xlink" xmlns:svgjs="http://svgjs.dev/svgjs" width="1440" height="560" preserveAspectRatio="none" viewBox="0 0 1440 560">
    <g mask="url(&quot;#SvgjsMask1011&quot;)" fill="none">
        <path d="M0 28C17.65 -2.4 39.69 8.32 81.29 0C109.69 -5.68 110.65 0 140 0C210 0 210 0 280 0C350 0 350 0 420 0C479.31 0 483.45 -9.33 538.61 0C553.45 2.51 545.19 23.69 560 23.69C625.88 23.69 630 11.85 700 0C700 0 700 0 700 0C770 0 770 0 840 0C910 0 910 0 980 0C1050 0 1050 0 1120 0C1155 0 1163.75 -17.5 1190 0C1233.75 29.17 1217.01 93.33 1260 93.33C1322.01 93.33 1326.93 7.55 1400 0C1466.93 -6.91 1493.04 17.44 1540 64.4C1563.04 87.44 1540 102.2 1540 140C1540 210 1540 210 1540 280C1540 313.6 1549.12 315.99 1540 347.2C1528.67 385.99 1499.1 384.51 1499.1 420C1499.1 450.75 1530.31 446.5 1540 479.67C1550.76 516.5 1564.75 544.58 1540 560C1500.27 584.75 1474.75 562.89 1411.05 560C1404.75 559.71 1405.82 553.64 1400 553.64C1391.17 553.64 1391.33 559.56 1381.74 560C1321.33 562.74 1320.87 560 1260 560C1220 560 1180 575.61 1180 560C1180 538.77 1226.8 528.15 1260 486.32C1282.36 458.15 1291.11 452.13 1291.11 420C1291.11 394.74 1284.8 381.05 1260 371.54C1199.25 348.24 1182.76 379.56 1120 354.38C1068.68 333.79 1079.03 312 1031.85 280C1009.03 264.52 1006.88 266.6 980 259.41C910.95 240.94 902.42 221.66 840 228.67C810.73 231.96 796.62 256.15 796.62 280C796.62 300.15 819.72 296.83 840 316.67C891.29 366.83 890.56 367.71 939.77 420C960.56 442.1 957.93 444.7 980 465.45C1032.37 514.7 1088.66 533.05 1088.66 560C1088.66 580.33 1034.33 560 980 560C910 560 910 560 840 560C770 560 770 560 700 560C630 560 630 560 560 560C490 560 490 560 420 560C350 560 350 560 280 560C210 560 210 560 140 560C70 560 35 595 0 560C-35 525 0 490 0 420C0 350 0 350 0 280C0 210 0 210 0 140C0 84 -22.99 67.6 0 28" stroke="rgba(65, 105, 225, 1)" stroke-width="2"></path>
        <path d="M140 49.19C121.63 49.19 105.5 93.41 105 140C104.25 208.81 135.42 209.6 137.5 280C139.55 349.6 112.5 350.79 113.26 420C113.75 464.87 119.99 508.15 140 508.15C163.11 508.15 170.2 464.37 199.5 420C240.2 358.37 241.33 358.86 280 296.15C284.49 288.86 285.83 287.5 285.83 280C285.83 276.2 282.64 277 280 273.54C229.26 207 223.08 210.52 179.07 140C153.08 98.35 158.66 49.19 140 49.19" stroke="rgba(65, 105, 225, 1)" stroke-width="2"></path>
        <path d="M560 240.8C542.44 240.8 527.33 260.81 527.33 280C527.33 298.12 542.56 315.42 560 315.42C579.89 315.42 602 298.24 602 280C602 260.93 579.77 240.8 560 240.8" stroke="rgba(65, 105, 225, 1)" stroke-width="2"></path>
        <path d="M700 390.65C687.87 390.65 675.73 403.43 675.73 420C675.73 448.44 687.87 480.67 700 480.67C712.13 480.67 724.27 448.44 724.27 420C724.27 403.43 712.13 390.65 700 390.65" stroke="rgba(65, 105, 225, 1)" stroke-width="2"></path>
        <path d="M0 66.89C19.81 66.89 52.91 95.57 68.54 140C90.41 202.13 73.65 209.96 75 280C76.35 349.96 93.99 356.69 73.93 420C56.49 475.07 20.6 516.76 0 516.76C-16.37 516.76 0 468.38 0 420C0 350 0 350 0 280C0 210 0 210 0 140C0 103.44 -14.46 66.89 0 66.89" stroke="rgba(65, 105, 225, 1)" stroke-width="2"></path>
        <path d="M219.77 140C195.11 75.52 177.08 43.98 196 0C207.19 -26.02 238 0 280 0C350 0 350 0 420 0C455 0 461.91 -15.56 490 0C531.91 23.21 517.94 48.24 560 77.54C618.42 118.24 627.15 106.62 690.97 140C697.15 143.23 697.39 144.28 700 150.77C725.56 214.28 747.32 219.77 747.32 280C747.32 311.48 723.76 334.19 700 334.19C676.1 334.19 677.56 305.57 652 280C607.56 235.54 603.31 194.13 560 194.13C521.53 194.13 488.44 237.96 488.44 280C488.44 319.69 522.64 320.39 560 357.59C592.95 390.39 629.07 384.49 629.07 420C629.07 467.5 601.37 478.96 560 523.6C536.5 548.96 532.33 551.42 499.33 560C462.33 569.62 459.66 560 420 560C350 560 350 560 280 560C233.34 560 186.67 584.08 186.67 560C186.67 518.45 219.81 447.93 280 428.75C336.48 410.75 360.27 488.53 420 485.63C450.46 484.15 460.38 449.8 460.38 420C460.38 399.19 437.95 404.37 420 384.41C374.98 334.37 378.14 331.41 334.44 280C308.14 249.05 305.72 251.09 280 219.69C248.38 181.09 237.11 185.36 219.77 140" stroke="rgba(65, 105, 225, 1)" stroke-width="2"></path>
        <path d="M420 109.57C404.4 109.57 390.21 125.38 390.21 140C390.21 153.56 404.52 165.93 420 165.93C437.36 165.93 455.9 153.66 455.9 140C455.9 125.48 437.24 109.57 420 109.57" stroke="rgba(65, 105, 225, 1)" stroke-width="2"></path>
        <path d="M718.67 140C718.67 115.7 788.85 119.09 840 77.24C874.41 49.09 854.46 19.49 889.78 0C924.46 -19.13 934.89 0 980 0C1028.34 0 1034.96 -14.66 1076.67 0C1104.96 9.94 1098.52 24.43 1120 49.19C1159.26 94.43 1162.17 92.27 1198.14 140C1232.17 185.17 1231.94 235 1260 235C1286.2 235 1274.69 180.98 1306.67 140C1344.69 91.26 1348.75 56.79 1400 55.56C1465.42 53.99 1472.36 93.6 1540 134.4C1542.36 135.82 1540 137.2 1540 140C1540 186.67 1567.74 209.91 1540 233.33C1497.74 269.02 1469.06 242.21 1400 258.22C1368.43 265.54 1369.62 269.85 1338.75 280C1299.62 292.86 1299.27 304.23 1260 304.23C1222.83 304.23 1221.66 295.14 1185.88 280C1151.66 265.52 1155 257.25 1120 245C1052.06 221.22 1049.97 226.6 980 207.94C909.97 189.26 910.15 188.57 840 170.33C779.48 154.6 718.67 162.25 718.67 140" stroke="rgba(65, 105, 225, 1)" stroke-width="2"></path>
        <path d="M770.93 420C770.93 384.09 806.61 358.33 840 358.33C870.91 358.33 870.57 388.43 899.54 420C940.57 464.72 937.65 467.59 980 510.91C1006.09 537.59 1036.42 546.01 1036.42 560C1036.42 570.55 1008.21 560 980 560C927.5 560 924.18 569.62 875 560C854.18 555.93 853.1 550.23 840 532.61C801.06 480.23 770.93 471.23 770.93 420" stroke="rgba(65, 105, 225, 1)" stroke-width="2"></path>
        <path d="M1334.32 420C1334.32 363.8 1368.31 301.78 1400 301.78C1431.04 301.78 1459.78 363.44 1459.78 420C1459.78 462.85 1430.81 500.61 1400 500.61C1368.08 500.61 1334.32 463.21 1334.32 420" stroke="rgba(65, 105, 225, 1)" stroke-width="2"></path>
        <path d="M1503.16 560C1503.16 553.79 1527.95 537.05 1540 537.05C1546.37 537.05 1547.07 555.6 1540 560C1528.65 567.07 1503.16 565.27 1503.16 560" stroke="rgba(65, 105, 225, 1)" stroke-width="2"></path>
        <path d="M0 105.78C9.27 105.78 30.52 118.3 32.08 140C36.77 205.41 11.87 210.09 12.5 280C13.13 350.09 39.07 353.93 34.61 420C32.82 446.57 9.64 465.29 0 465.29C-7.66 465.29 0 442.64 0 420C0 350 0 350 0 280C0 210 0 210 0 140C0 122.89 -6.77 105.78 0 105.78" stroke="rgba(65, 105, 225, 1)" stroke-width="2"></path>
        <path d="M260.47 140C260.47 97.92 266.54 51.58 280 51.58C294.18 51.58 315.74 100.93 315.74 140C315.74 158.07 295.93 165.85 280 165.85C268.3 165.85 260.47 155.06 260.47 140" stroke="rgba(65, 105, 225, 1)" stroke-width="2"></path>
        <path d="M420 33.48C382.67 33.48 334.44 8.67 334.44 0C334.44 -8.07 377.22 0 420 0C430.69 0 441.39 -5.86 441.39 0C441.39 10.88 436.14 33.48 420 33.48" stroke="rgba(65, 105, 225, 1)" stroke-width="2"></path>
        <path d="M545.64 140C545.64 135.91 552.61 131.38 560 131.38C568.82 131.38 578.06 135.93 578.06 140C578.06 143.97 568.87 147.47 560 147.47C552.66 147.47 545.64 143.95 545.64 140" stroke="rgba(65, 105, 225, 1)" stroke-width="2"></path>
        <path d="M924 140C919.55 84.04 941.75 64.53 967.56 0C969.75 -5.47 973.78 0 980 0C986.66 0 989.01 -4.86 993.33 0C1051.23 65.14 1108.36 94.04 1104.44 140C1101.69 172.28 1041.58 156.47 980 156.47C951.36 156.47 925.77 162.28 924 140" stroke="rgba(65, 105, 225, 1)" stroke-width="2"></path>
        <path d="M1368.07 140C1368.07 124.22 1382.47 111.11 1400 111.11C1423.71 111.11 1450.56 123.59 1450.56 140C1450.56 158.25 1422.97 180.44 1400 180.44C1381.72 180.44 1368.07 158.88 1368.07 140" stroke="rgba(65, 105, 225, 1)" stroke-width="2"></path>
        <path d="M383.06 280C383.06 255.77 402.8 230.74 420 230.74C436.05 230.74 449.56 255.66 449.56 280C449.56 302.83 435.98 325.08 420 325.08C402.73 325.08 383.06 302.94 383.06 280" stroke="rgba(65, 105, 225, 1)" stroke-width="2"></path>
        <path d="M527.69 420C527.69 407.89 544.73 399.76 560 399.76C572.09 399.76 582.4 408.48 582.4 420C582.4 435.4 572.7 453.6 560 453.6C545.34 453.6 527.69 434.81 527.69 420" stroke="rgba(65, 105, 225, 1)" stroke-width="2"></path>
        <path d="M817.6 420C817.6 408.35 829.17 400 840 400C850.03 400 859.31 408.63 859.31 420C859.31 436.89 850.24 456.52 840 456.52C829.38 456.52 817.6 436.61 817.6 420" stroke="rgba(65, 105, 225, 1)" stroke-width="2"></path>
        <path d="M1377.53 420C1377.53 400.77 1389.16 379.56 1400 379.56C1410.62 379.56 1420.45 400.65 1420.45 420C1420.45 434.66 1410.54 447.58 1400 447.58C1389.08 447.58 1377.53 434.78 1377.53 420" stroke="rgba(65, 105, 225, 1)" stroke-width="2"></path>
        <path d="M264.44 560C264.44 553.08 269.04 538.13 280 538.13C303.74 538.13 333.85 554.32 333.85 560C333.85 565.26 306.92 560 280 560C272.22 560 264.44 564.01 264.44 560" stroke="rgba(65, 105, 225, 1)" stroke-width="2"></path>
        <path d="M972.22 560C972.22 559.05 976.37 556.36 980 556.36C982.35 556.36 984.18 558.96 984.18 560C984.18 560.78 982.09 560 980 560C976.11 560 972.22 560.87 972.22 560" stroke="rgba(65, 105, 225, 1)" stroke-width="2"></path>
    </g>
    <defs>
        <mask id="SvgjsMask1011">
            <rect width="1440" height="560" fill="#ffffff"></rect>
        </mask>
    </defs>
</svg>