<svg id="visual" viewBox="0 0 900 900" width="900" height="900" xmlns="http://www.w3.org/2000/svg" xmlns:xlink="http://www.w3.org/1999/xlink" version="1.1"><path d="M0 198L21.5 210C43 222 86 246 128.8 264.7C171.7 283.3 214.3 296.7 257.2 281.5C300 266.3 343 222.7 385.8 194.8C428.7 167 471.3 155 514.2 148.3C557 141.7 600 140.3 642.8 159.3C685.7 178.3 728.3 217.7 771.2 224.5C814 231.3 857 205.7 878.5 192.8L900 180L900 0L878.5 0C857 0 814 0 771.2 0C728.3 0 685.7 0 642.8 0C600 0 557 0 514.2 0C471.3 0 428.7 0 385.8 0C343 0 300 0 257.2 0C214.3 0 171.7 0 128.8 0C86 0 43 0 21.5 0L0 0Z" fill="#24202d" stroke-linecap="round" stroke-linejoin="miter"></path></svg>